<?xml version="1.0" encoding="UTF-8" standalone="no"?>
<!-- Created with Inkscape (http://www.inkscape.org/) -->

<svg
   width="36.599464"
   height="43.640617"
   viewBox="0 0 9.6836077 11.54658"
   version="1.1"
   id="svg1"
   xmlns="http://www.w3.org/2000/svg"
   xmlns:svg="http://www.w3.org/2000/svg"
   xmlns:rdf="http://www.w3.org/1999/02/22-rdf-syntax-ns#"
   xmlns:cc="http://creativecommons.org/ns#"
   xmlns:dc="http://purl.org/dc/elements/1.1/">
  <defs
     id="defs1" />
  <metadata
     id="metadata1">
    <rdf:RDF>
      <cc:Work
         rdf:about="">
        <dc:format>image/svg+xml</dc:format>
        <dc:type
           rdf:resource="http://purl.org/dc/dcmitype/StillImage" />
      </cc:Work>
    </rdf:RDF>
  </metadata>
  <path
     fill="#1a8080"
     d="m 5.4533493,0.20670512 0.614606,0.460262 c 0.16812,0.126781 0.345888,0.191548 0.55535,0.202572 l 0.767567,0.04272 c 0.458886,0.02618 0.832336,0.33899488 0.937066,0.78685688 l 0.17501,0.748277 c 0.0482,0.203948 0.14194,0.366557 0.2949,0.511253 l 0.5608606,0.525032 c 0.33486,0.31557 0.4203,0.795126 0.21222,1.205784 l -0.34589,0.684883 c -0.0951,0.187413 -0.12815,0.37345 -0.10335,0.581533 l 0.091,0.763432 c 0.0551,0.456131 -0.18879,0.87781 -0.6118506,1.059713 L 7.8952853,8.080814 C 7.7023583,8.163494 7.5576623,8.284762 7.4432883,8.46115 L 7.0216063,9.103319 C 6.7708063,9.48917 6.3132953,9.65591 5.8723233,9.522243 L 5.1364503,9.300377 c -0.201193,-0.06063 -0.388606,-0.06063 -0.589799,0 L 3.8107783,9.522243 C 3.3711853,9.65591 2.9136743,9.489183 2.6614953,9.103319 L 2.2411423,8.461151 C 2.1253883,8.284763 1.9820723,8.163495 1.7877693,8.080815 L 1.0822143,7.779024 C 0.65915528,7.597121 0.41524128,7.175442 0.47036328,6.719311 l 0.09095,-0.763432 c 0.0248,-0.208083 -0.0083,-0.39412 -0.101974,-0.581533 L 0.11207528,4.689463 C -0.09463169,4.278805 -0.01057169,3.799249 0.32429228,3.483679 l 0.56086,-0.525032 C 1.0381163,2.813951 1.1318213,2.651342 1.1800533,2.447394 l 0.17501,-0.748277 c 0.104732,-0.447862 0.478179,-0.76067688 0.937066,-0.78685688 l 0.767567,-0.04272 c 0.209461,-0.01101 0.38723,-0.07579 0.555349,-0.202572 l 0.614606,-0.460262 c 0.367937,-0.275608 0.855762,-0.275608 1.223698,-1e-6 z M 4.4487583,5.047751 3.7817893,4.379403 c -0.172254,-0.172254 -0.453376,-0.172254 -0.627006,0 -0.172258,0.173634 -0.172258,0.454752 0,0.627006 l 0.982539,0.982543 c 0.172255,0.172254 0.453376,0.172254 0.625631,0 0.592557,-0.592558 1.176845,-1.190625 1.766644,-1.784559 0.170878,-0.173633 0.170878,-0.453376 -0.0028,-0.62563 -0.172255,-0.172254 -0.453376,-0.172254 -0.625631,0.0014 z m 0.392744,-3.589789 c -0.917776,0 -1.750109,0.372071 -2.350936,0.974273 -0.602202,0.602203 -0.974273,1.43316 -0.974273,2.352312 0,0.917773 0.372071,1.74873 0.974273,2.350932 0.600827,0.602203 1.43316,0.974274 2.350936,0.974274 0.919149,0 1.750106,-0.372071 2.352308,-0.974274 0.600827,-0.602202 0.972898,-1.433159 0.972898,-2.350932 0,-0.919152 -0.372071,-1.750109 -0.972898,-2.352312 C 6.5916083,1.830033 5.7606513,1.457962 4.8415023,1.457962 Z m 2.086349,1.240236 c -0.533301,-0.534681 -1.27193,-0.86403 -2.086349,-0.86403 -0.814423,0 -1.551672,0.329349 -2.086352,0.86403 -0.533302,0.533298 -0.864031,1.27055 -0.864031,2.086349 0,0.814419 0.330729,1.551672 0.864031,2.086349 0.53468,0.533301 1.271929,0.864031 2.086352,0.864031 0.814419,0 1.553048,-0.33073 2.086349,-0.864031 0.534677,-0.534677 0.864031,-1.27193 0.864031,-2.086349 0,-0.815799 -0.329354,-1.553051 -0.864031,-2.086349 z m -0.836471,7.24159 0.728983,1.565451 c 0.01101,0.0248 0.03306,0.03996 0.06064,0.04134 0.02618,0 0.04961,-0.01242 0.06339,-0.03583 l 0.544325,-0.935687 1.06523,0.186034 c 0.0262,0.0055 0.0524,-0.0041 0.0689,-0.02618 0.0152,-0.02067 0.0193,-0.04823 0.007,-0.07166 L 7.7244733,8.716088 7.3358673,9.308646 c -0.279742,0.428568 -0.753787,0.6600792 -1.244371,0.63114 z m -2.470821,-0.0014 C 3.1189523,9.976978 2.6325063,9.745464 2.3472503,9.308626 l -0.372068,-0.567753 -0.894348,1.922364 c -0.01242,0.02342 -0.0083,0.05099 0.0069,0.07166 0.01655,0.02205 0.04272,0.03168 0.0689,0.02618 l 1.065223,-0.186034 0.544325,0.935686 c 0.01379,0.02342 0.03721,0.03583 0.06339,0.03583 0.02755,-0.0014 0.04961,-0.01655 0.06063,-0.04134 z m 0,0"
     fill-opacity="1"
     fill-rule="evenodd"
     id="path252"
     style="display:inline;stroke-width:0.352778" />
</svg>
