<?xml version="1.0" encoding="UTF-8" standalone="no"?>
<!-- Created with Inkscape (http://www.inkscape.org/) -->

      <svg
        width="6.9412537mm"
        height="9.5249987mm"
        viewBox="0 0 6.9412537 9.5249987"
        version="1.1"
        id="svg1"
        xml:space="preserve"
        xmlns="http://www.w3.org/2000/svg"
        xmlns:svg="http://www.w3.org/2000/svg"
        xmlns:rdf="http://www.w3.org/1999/02/22-rdf-syntax-ns#"
        xmlns:cc="http://creativecommons.org/ns#"
        xmlns:dc="http://purl.org/dc/elements/1.1/"
      >
        <defs id="defs1" />
        <metadata id="metadata1">
          <rdf:RDF>
            <cc:Work rdf:about="">
              <dc:format>image/svg+xml</dc:format>
              <dc:type rdf:resource="http://purl.org/dc/dcmitype/StillImage" />
            </cc:Work>
          </rdf:RDF>
        </metadata>
        <g
          id="g1"
          transform="matrix(0.01705429,0,0,0.01705429,-4.6854532,-3.8713709)"
        >
          <path
            fill="#000000"
            opacity="1"
            stroke="none"
            d="m 428.07489,528.16992 c 4.14398,2.3042 0.90982,3.71588 -0.42136,4.75617 -6.55957,5.12597 -13.2474,10.08984 -19.94378,15.03808 -3.61637,2.67224 -7.34836,5.18775 -11.01285,7.79547 -1.62152,1.15387 -3.58383,2.21894 -3.36081,4.57898 0.25436,2.69214 2.72321,3.2085 4.69791,3.87506 16.56161,5.59052 33.14273,11.12409 49.74105,16.60486 6.4805,2.13989 13.05433,3.99945 19.51917,6.18347 3.60339,1.21741 6.31595,0.84778 8.63294,-2.52996 2.27261,-3.31305 5.18136,-6.16779 9.10024,-7.54584 2.16626,-0.76166 2.63376,-2.2171 2.63269,-4.22772 -0.0144,-26.82819 -0.006,-53.65631 0.009,-80.4845 0.001,-1.80277 -0.39008,-3.31027 -2.33978,-3.92981 -9.31738,-2.96076 -18.63355,-5.92517 -28.08591,-8.93149 -3.69238,6.46491 -1.93591,14.79309 -8.05981,20.44171 -2.5405,-3.89734 -1.23728,-7.55441 -1.17148,-11.0361 0.0595,-3.15292 0.62503,-6.29727 0.66699,-9.4494 0.14923,-11.22125 -3.48944,-16.83191 -14.09875,-21.02011 -11.21445,-4.42703 -23.1908,-5.75247 -34.93921,-7.96533 -2.44098,-0.45978 -4.90772,-0.78269 -7.78287,-1.23475 0.94409,-3.5943 -0.76242,-4.99212 -4.04919,-5.58425 -2.58326,-0.46546 -5.05332,-1.63053 -7.53119,-2.59412 -4.56226,-1.77402 -7.00122,-5.0018 -6.40314,-10.04797 0.55191,-4.65668 -2.11173,-5.84372 -6.08456,-6.60749 -13.06196,-2.51114 -26.08372,-5.24585 -39.07447,-8.10583 -5.63562,-1.24073 -5.9284,-2.94397 -2.14581,-7.19785 5.60294,-6.30102 12.28342,-8.2272 20.62366,-6.8482 24.12033,3.98809 48.30993,7.55685 72.47259,11.28863 0.49362,0.0762 0.98899,0.17874 1.48551,0.1915 2.50329,0.0643 5.77899,0.44015 6.0884,-2.72546 0.30204,-3.08982 -3.26486,-2.96622 -5.28942,-3.27512 -14.62592,-2.23166 -29.28012,-4.28571 -43.94355,-6.26108 -10.8761,-1.46512 -21.87616,-2.22809 -32.62677,-4.30789 -4.78778,-0.92627 -9.2467,-4.07785 -13.5607,-6.70288 -2.10714,-1.28217 -1.73593,-4.16672 -1.81955,-6.48425 -0.51345,-14.22818 -0.006,-14.5113 13.79389,-12.94779 23.47818,2.66013 46.62411,7.53546 70.08493,10.2706 11.24118,1.31052 22.49002,2.56012 33.74521,3.74378 3.46979,0.36486 6.71252,0.77011 7.56674,5.01297 1.34082,6.65985 0.23968,10.10983 -3.98627,12.56323 -2.87771,1.67062 -5.80609,3.28628 -8.51816,5.20083 -2.75439,1.94443 -3.55093,4.60288 -0.85275,7.15534 7.62348,7.21167 11.06314,16.51196 13.23334,26.37662 0.86627,3.93768 2.96835,5.93756 6.68143,7.10577 6.66665,2.09741 13.23761,4.50427 19.82098,6.85892 3.19525,1.14282 5.19904,0.58197 5.45062,-3.20362 0.16516,-2.48535 0.59467,-4.9624 0.6221,-7.44629 0.66806,-60.47955 1.29914,-120.9602 0.84931,-181.44372 -0.0377,-5.06128 1.27054,-8.22562 5.92813,-10.72629 25.27038,-13.56785 24.73126,-11.62393 49.185,0.90029 3.43146,1.75744 3.71759,4.63536 3.70849,7.98377 -0.0845,31.16053 0.047,62.32245 -0.2268,93.48093 -0.0517,5.89243 1.52044,10.62653 5.16333,15.08603 1.68542,2.06329 3.14929,2.59766 5.50018,1.50647 16.91809,-7.85278 33.89838,-15.57281 50.7619,-23.54053 5.20807,-2.46075 5.07007,-3.8901 1.12848,-7.94809 -7.42596,-7.64529 -14.646,-15.49133 -21.90753,-23.29501 -1.21869,-1.30969 -2.40125,-2.73245 -2.66455,-5.18054 9.84607,-2.85953 19.68817,-4.88236 29.83356,-5.07297 2.54931,-0.0479 4.76434,1.43466 6.49731,3.36585 9.34527,10.41403 18.68311,20.8348 27.98663,31.28607 0.62909,0.70678 0.956,1.68261 1.46332,2.60586 -2.35358,2.73102 -5.59625,3.01575 -8.5766,3.88187 -2.55963,0.7439 -5.37451,1.27579 -6.44842,4.15399 -4.41767,11.84033 -14.37037,19.03009 -23.10712,27.09424 -11.35382,10.4798 -24.25348,18.20004 -40.38721,18.60855 -2.29944,0.0583 -4.06445,1.35092 -5.71887,2.79333 -4.58826,4.00019 -8.2851,8.70112 -10.57843,14.35105 -2.18286,5.37778 -3.61511,11.0773 -8.20441,15.20395 -1.53442,1.3797 -1.49762,3.60473 -1.49621,5.64731 0.0336,49.15713 -0.25678,98.31726 0.21942,147.46997 0.19366,19.98504 0.643,39.97784 0.79101,59.96795 0.33429,45.15168 0.52204,90.30451 0.75257,135.45697 0.0369,7.2262 -0.003,7.24591 -7.09155,7.24982 -15.6637,0.009 -31.33133,-0.20477 -46.9888,0.10492 -5.14173,0.10175 -6.47501,-1.58551 -6.45423,-6.55133 0.18955,-45.32391 -0.0619,-90.65088 0.37784,-135.9715 0.0738,-7.61346 -2.70709,-11.84985 -8.6785,-15.74457 -21.57806,-14.07348 -45.00308,-24.56439 -68.05529,-35.78771 -10.33143,-5.02991 -20.74979,-9.88105 -31.11487,-14.84217 -5.19956,-2.48877 -9.26126,-5.91089 -9.844,-12.17847 -0.30346,-3.26397 -2.82159,-4.25189 -5.47775,-4.98602 -3.961,-1.09491 -8.12842,-1.59759 -11.65863,-3.91394 -0.004,-2.41211 1.89233,-3.23913 3.22653,-4.29632 10.18271,-8.06903 20.50287,-15.9654 30.64844,-24.08026 5.21405,-4.17048 10.78387,-5.37702 17.28888,-3.85663 7.76901,1.81585 15.64416,3.17755 23.80258,4.86999 M 606.38525,374.88559 c 6.71759,-5.53839 13.53437,-10.9848 18.24427,-18.76676 -3.36054,-1.64453 -5.7843,-0.41427 -8.13141,0.76621 -6.53992,3.28925 -13.07984,6.58389 -19.53693,10.03159 -16.87573,9.01068 -33.85516,17.83435 -49.8894,28.34091 -7.19251,4.71295 -12.02204,10.78131 -13.31549,19.51446 -0.47858,3.23136 -0.31275,5.79624 3.31543,6.55783 3.29144,0.69086 6.05774,1.00794 8.07,-3.3056 6.40662,-13.7334 17.20008,-23.3656 31.44434,-28.07651 10.58002,-3.49899 20.51147,-7.70376 29.79919,-15.06213 m -159.94894,62.23407 c -1.78088,-7.03464 -5.5517,-12.71854 -11.48224,-16.94321 -3.01202,-2.14557 -5.83694,-2.24212 -8.30307,0.81613 -4.81744,5.97412 -10.81494,7.61335 -18.20462,5.60752 -3.48526,-0.94608 -7.21237,-1.03159 -10.84036,-1.40589 -1.41068,-0.14553 -3.04941,-0.56018 -3.81595,1.35294 0.30246,1.67853 1.72143,1.83017 2.96814,2.20206 14.95016,4.45883 29.9176,8.86084 44.841,13.40753 4.20151,1.28012 5.62229,-0.14057 4.8371,-5.03708 z"
            id="path1"
          />
          <path
            fill="#000000"
            opacity="1"
            stroke="none"
            d="m 349.66071,368.45654 c -5.38202,-0.69067 -10.30857,-1.53003 -15.27024,-1.90588 -6.34762,-0.48084 -10.24981,-3.9285 -11.88955,-9.7168 -2.59174,-9.14892 -5.44108,-18.15002 -9.89551,-26.60733 -1.90821,-3.62289 0.0993,-4.41797 3.39828,-3.89276 16.25406,2.58756 32.50925,5.16827 48.77057,7.70981 27.10202,4.23584 54.21018,8.45068 81.47772,11.48447 4.25809,0.47375 7.23557,2.2001 9.37415,5.65356 5.42474,8.75986 6.35718,18.41815 5.45489,28.3959 -0.28967,3.20346 -2.45706,3.88553 -5.31906,3.84412 -9.52987,-0.13788 -18.84015,-2.12692 -28.25644,-3.20691 -25.27899,-2.8995 -50.31476,-7.453 -75.46701,-11.21576 -0.65551,-0.098 -1.29242,-0.32062 -2.3778,-0.54242 z"
            id="path2"
          />
          <path
            fill="#000000"
            opacity="1"
            stroke="none"
            d="m 352.50031,475.4754 c 11.71417,-9.14108 23.14138,-18.06772 34.56857,-26.99438 0.42569,0.34643 0.85135,0.69287 1.27701,1.03931 -4.74204,10.17681 -4.80732,21.1914 -6.36222,31.94281 -0.70987,4.90853 -3.66012,8.45388 -7.4895,11.37451 -10.19122,7.7727 -20.38623,15.54055 -30.55685,23.34014 -6.59738,5.05945 -13.64774,9.5719 -19.21875,15.88056 -0.88086,0.99744 -1.93927,2.12457 -3.38584,1.7077 -1.88467,-0.54327 -1.53625,-2.35901 -1.56625,-3.79333 -0.17096,-8.17749 0.65506,-16.28693 2.12314,-24.31064 0.93786,-5.12595 3.97754,-9.13803 7.96985,-12.34305 7.39975,-5.94061 14.89712,-11.75961 22.64084,-17.84363 z"
            id="path3"
          />
          <path
            fill="#000000"
            opacity="1"
            stroke="none"
            d="m 568.86816,260.1832 c 0.633,-14.07653 4.54297,-18.20375 18.40204,-19.56604 10.91272,-1.07267 21.82904,-2.17925 32.76886,-2.87799 6.50263,-0.41536 8.59253,1.42111 10.39539,7.62681 1.44842,4.98575 1.96667,10.0938 1.93725,15.28475 -0.0442,7.82058 -0.0139,15.64215 0.0588,23.46264 0.0981,10.5517 -4.28052,16.24027 -14.83441,17.68888 -10.19775,1.39971 -20.4801,2.4559 -30.80481,2.38537 -13.74774,-0.0939 -18.00732,-4.92856 -17.56348,-18.60217 0.26929,-8.29651 -0.21765,-16.61755 -0.35968,-25.40225 m 53.9032,-0.27744 c -0.66839,-8.56634 -3.45679,-11.23411 -11.95648,-10.89661 -6.30231,0.25026 -12.60272,0.74065 -18.8808,1.35932 -6.91101,0.68101 -11.07385,5.08667 -11.86987,11.89242 -0.81409,6.96009 -0.76404,13.9401 -0.68945,20.91919 0.072,6.74366 3.67608,10.55451 10.46118,10.68091 6.80487,0.12677 13.62176,0.0663 20.4032,-0.88165 7.46807,-1.04401 12.26489,-6.15631 12.4212,-13.70413 0.12732,-6.14972 0.0923,-12.3028 0.11102,-19.36945 z"
            id="path4"
          />
          <path
            fill="#000000"
            opacity="1"
            stroke="none"
            d="m 444.30774,511.64227 c -1.27139,8.08112 -4.90006,11.65851 -12.36072,11.25812 -11.77618,-0.63196 -23.56589,-1.63934 -35.02048,-4.69714 -9.93908,-2.65314 -13.8428,-7.46753 -13.14419,-17.56781 0.92734,-13.40689 1.22445,-26.90238 3.91562,-40.1446 0.81103,-3.99093 2.95404,-7.18746 7.31585,-6.74285 13.70609,1.39724 27.41968,3.01074 40.6026,7.30108 6.99518,2.27658 9.70057,7.7565 9.58982,14.71402 -0.1879,11.80921 -0.57978,23.61511 -0.8985,35.87918 m -29.46521,-0.075 c 1.65268,0.17929 3.31869,0.27835 4.95581,0.551 10.05563,1.67456 14.33719,-1.54676 14.9487,-11.85669 0.37375,-6.30164 0.23737,-12.64203 0.12744,-18.96152 -0.1188,-6.82477 -3.8255,-11.14157 -10.10629,-13.34113 -5.99509,-2.09948 -12.23941,-3.14926 -18.53372,-3.67691 -8.35752,-0.70071 -12.59931,3.05335 -12.84888,11.35965 -0.20483,6.81787 -0.19791,13.65073 -0.0116,20.46945 0.20468,7.49359 3.94809,12.09983 11.24472,13.91962 3.04233,0.75873 6.22504,0.95474 10.22385,1.53653 z"
            id="path5"
          />
          <path
            fill="#000000"
            opacity="1"
            stroke="none"
            d="m 642.99396,282.97528 c -6.69702,-7.55197 -9.81952,-15.80692 -9.53138,-25.78839 0.22199,-7.69 -1.19848,-15.42743 -1.93316,-23.64233 2.75018,0.92242 3.90417,2.79473 5.08429,4.47224 11.78918,16.75789 25.24145,32.21086 37.91327,48.27379 4.17254,5.28931 7.19037,10.89209 7.21869,17.62152 0.0284,6.7966 -0.50812,13.59839 -0.91816,20.39059 -0.0519,0.85926 -0.8377,1.67423 -1.76806,3.41797 -12.22614,-15.16629 -24.03571,-29.81576 -36.06549,-44.74539 z"
            id="path6"
          />
          <path
            fill="#000000"
            opacity="1"
            stroke="none"
            d="m 340.91351,548.27051 c -2.34454,-3.64893 -4.46664,-6.70654 -9.24786,-4.05213 -0.92749,0.5149 -2.25681,0.0209 -2.91608,-1.26397 -2.27807,-4.43946 -0.56384,-12.82501 3.71775,-15.98078 13.80935,-10.1784 27.72677,-20.21054 41.63888,-30.24869 1.41968,-1.02435 2.88846,-2.78881 4.86368,-1.78301 2.03882,1.03817 1.22266,3.25866 1.20859,4.9884 -0.0407,5.00479 -0.32712,10.02118 1.91735,14.71725 0.96064,2.00989 0.25348,3.46588 -1.36276,4.77735 -11.64242,9.44683 -23.25574,18.92956 -34.89898,28.37542 -1.35813,1.10181 -2.89316,1.69104 -4.92057,0.47016 z"
            id="path7"
          />
          <path
            fill="#000000"
            opacity="1"
            stroke="none"
            d="m 287.51862,336.50464 c 4.08419,-3.73255 8.02633,-7.08847 12.94802,-8.94678 6.0011,-2.2659 12.96991,2.6879 13.01343,9.1116 0.0147,2.17786 -1.44174,3.45182 -2.9639,4.32627 -14.91928,8.57092 -20.44934,21.46649 -18.26928,38.25659 0.55298,4.25885 0.10025,8.65124 0.0639,12.9819 -0.0114,1.35837 -0.19473,2.80112 -1.75491,3.24594 -1.45404,0.41455 -2.70801,-0.38888 -3.43827,-1.52133 -1.52688,-2.36792 -3.08984,-4.7666 -4.19265,-7.34326 -2.6865,-6.27686 -4.56879,-12.84399 -6.67929,-19.3346 -3.22476,-9.91757 -1.31421,-18.32827 6.07965,-25.58578 1.66281,-1.63214 3.28934,-3.30124 5.1933,-5.19055 z"
            id="path8"
          />
          <path
            fill="#000000"
            opacity="1"
            stroke="none"
            d="m 655.43091,333.5824 c -7.35596,-9.05228 -14.4173,-17.88288 -21.65528,-26.56623 -2.33874,-2.80584 -3.20739,-5.53756 -1.99585,-9.10659 2.25678,-6.64841 2.07917,-13.67557 2.34962,-20.52018 2.47552,-0.59344 2.95159,1.23536 3.70269,2.30558 8.99683,12.81732 19.47058,24.42395 29.57642,36.33487 4.14508,4.88543 7.52588,10.08255 7.00421,17.01751 -0.24719,3.28565 -1.16614,4.67996 -4.57892,3.4668 -1.17163,-0.41647 -2.76459,-1.64426 -3.69806,-0.35553 -4.87109,6.72458 -7.19647,0.86038 -10.16888,-1.90714 -0.12024,-0.11193 -0.20734,-0.25939 -0.53595,-0.66909 z"
            id="path9"
          />
          <path
            fill="#000000"
            opacity="1"
            stroke="none"
            d="m 302.23908,381.99213 c 0.0632,4.49121 -0.12754,8.51016 0.24658,12.4758 0.50659,5.36938 2.9375,6.28662 7.17996,3.06405 6.43085,-4.88495 11.74185,-10.37948 11.3071,-19.31677 -0.0711,-1.46103 0.3663,-2.96826 0.70349,-4.42291 0.58777,-2.53565 -0.24088,-6.59906 3.58078,-6.46707 3.70135,0.12783 4.15472,3.7597 3.98059,6.93203 -0.25522,4.64951 -0.55768,9.29785 -0.94043,13.93842 -0.24536,2.97507 -1.82678,5.30524 -3.97293,7.28094 -6.01526,5.53748 -12.45078,10.55527 -19.34332,14.93277 -5.22669,3.31943 -7.37989,2.1688 -8.40314,-3.76416 -2.39356,-13.87762 -2.01798,-27.86087 -1.7131,-41.8389 0.10604,-4.86264 1.96423,-8.9952 5.64688,-12.34701 4.05606,-3.69174 8.19445,-7.24432 12.7435,-10.22595 5.01852,4.98178 5.04495,5.96243 0.051,9.71121 -7.87393,5.91086 -12.35858,13.3393 -11.09381,23.56146 0.24347,1.96759 0.0282,3.99191 0.0268,6.48609 z"
            id="path10"
          />
          <path
            fill="#000000"
            opacity="1"
            stroke="none"
            d="m 579.76514,238.58011 c -9.47565,3.56625 -13.23499,8.61494 -13.34046,18.5722 -0.0685,6.4675 0.56891,12.94092 0.8241,19.41431 0.0696,1.76471 0.4292,3.64539 -1.01239,5.36206 -2.94458,0.19684 -3.69562,-2.0882 -4.12091,-4.05615 -2.39356,-11.07596 -3.75061,-22.30315 -3.17157,-33.63352 0.30414,-5.95092 4.33441,-9.46429 9.64136,-11.60045 5.76275,-2.31961 11.79711,-3.44363 17.95135,-3.89948 8.28516,-0.61365 16.58234,-1.06194 24.87116,-1.62763 3.67974,-0.25116 7.34216,-0.096 10.90765,0.7715 2.599,0.63237 5.84717,1.67535 5.58002,4.77138 -0.30762,3.5653 -3.84552,2.21811 -6.07611,2.24363 -13.98176,0.16021 -27.85663,1.45943 -42.0542,3.68215 z"
            id="path11"
          />
        </g>
      </svg>
