<?xml version="1.0" encoding="UTF-8" standalone="no"?>
<!-- Created with Inkscape (http://www.inkscape.org/) -->

<svg
   width="36"
   height="36"
   viewBox="0 0 9.5249995 9.5250003"
   version="1.1"
   id="svg1"
   xmlns="http://www.w3.org/2000/svg"
   xmlns:svg="http://www.w3.org/2000/svg"
   xmlns:rdf="http://www.w3.org/1999/02/22-rdf-syntax-ns#"
   xmlns:cc="http://creativecommons.org/ns#"
   xmlns:dc="http://purl.org/dc/elements/1.1/">
  <defs
     id="defs1">
    <clipPath
       id="275e81ca9d">
      <path
         d="m 556.29297,410.66797 h 28.47656 v 32.97265 h -28.47656 z m 0,0"
         clip-rule="nonzero"
         id="path33" />
    </clipPath>
  </defs>
  <metadata
     id="metadata1">
    <rdf:RDF>
      <cc:Work
         rdf:about="">
        <dc:format>image/svg+xml</dc:format>
        <dc:type
           rdf:resource="http://purl.org/dc/dcmitype/StillImage" />
      </cc:Work>
    </rdf:RDF>
  </metadata>
  <g
     clip-path="url(#275e81ca9d)"
     id="g252"
     transform="matrix(0.29080496,0,0,0.29080496,-161.0795,-119.48449)">
    <path
       fill="#1a8080"
       d="m 572.01953,411.47266 1.74219,1.30468 c 0.47656,0.35938 0.98047,0.54297 1.57422,0.57422 l 2.17578,0.1211 c 1.30078,0.0742 2.35937,0.96093 2.65625,2.23046 l 0.49609,2.1211 c 0.13672,0.57812 0.40235,1.03906 0.83594,1.44922 l 1.58984,1.48828 c 0.94922,0.89453 1.19141,2.2539 0.60157,3.41797 l -0.98047,1.9414 c -0.26953,0.53125 -0.36328,1.0586 -0.29297,1.64844 l 0.25781,2.16406 c 0.15625,1.29297 -0.53516,2.48828 -1.73437,3.00391 l -2,0.85547 c -0.54688,0.23437 -0.95704,0.57812 -1.28125,1.07812 l -1.19532,1.82032 c -0.71093,1.09375 -2.00781,1.5664 -3.25781,1.1875 L 571.12109,437.25 c -0.57031,-0.17188 -1.10156,-0.17188 -1.67187,0 l -2.08594,0.62891 c -1.24609,0.3789 -2.54297,-0.0937 -3.25781,-1.1875 l -1.19141,-1.82032 c -0.32812,-0.5 -0.73437,-0.84375 -1.28515,-1.07812 l -2,-0.85547 c -1.19922,-0.51563 -1.89063,-1.71094 -1.73438,-3.00391 l 0.25781,-2.16406 c 0.0703,-0.58984 -0.0234,-1.11719 -0.28906,-1.64844 l -0.98437,-1.9414 c -0.58594,-1.16407 -0.34766,-2.52344 0.60156,-3.41797 l 1.58984,-1.48828 c 0.4336,-0.41016 0.69922,-0.8711 0.83594,-1.44922 l 0.49609,-2.1211 c 0.29688,-1.26953 1.35547,-2.15625 2.65625,-2.23046 l 2.17578,-0.1211 c 0.59375,-0.0312 1.09766,-0.21484 1.57422,-0.57422 l 1.74219,-1.30468 c 1.04297,-0.78125 2.42578,-0.78125 3.46875,0 z m -2.84766,13.72265 -1.89062,-1.89453 c -0.48828,-0.48828 -1.28516,-0.48828 -1.77734,0 -0.48829,0.49219 -0.48829,1.28906 0,1.77734 l 2.78515,2.78516 c 0.48828,0.48828 1.28516,0.48828 1.77344,0 1.67969,-1.67969 3.33594,-3.375 5.00781,-5.05859 0.48438,-0.49219 0.48438,-1.28516 -0.008,-1.77344 -0.48828,-0.48828 -1.28516,-0.48828 -1.77344,0.004 z m 1.11329,-10.17578 c -2.60157,0 -4.96094,1.05469 -6.66407,2.76172 -1.70703,1.70703 -2.76172,4.0625 -2.76172,6.66797 0,2.60156 1.05469,4.95703 2.76172,6.66406 1.70313,1.70703 4.0625,2.76172 6.66407,2.76172 2.60546,0 4.96093,-1.05469 6.66796,-2.76172 1.70313,-1.70703 2.75782,-4.0625 2.75782,-6.66406 0,-2.60547 -1.05469,-4.96094 -2.75782,-6.66797 -1.70703,-1.70703 -4.0625,-2.76172 -6.66796,-2.76172 z m 5.91406,3.51563 c -1.51172,-1.51563 -3.60547,-2.44922 -5.91406,-2.44922 -2.3086,0 -4.39844,0.93359 -5.91407,2.44922 -1.51172,1.51171 -2.44922,3.60156 -2.44922,5.91406 0,2.30859 0.9375,4.39844 2.44922,5.91406 1.51563,1.51172 3.60547,2.44922 5.91407,2.44922 2.30859,0 4.40234,-0.9375 5.91406,-2.44922 1.51562,-1.51562 2.44922,-3.60547 2.44922,-5.91406 0,-2.3125 -0.9336,-4.40235 -2.44922,-5.91406 z m -2.3711,20.52734 2.06641,4.4375 c 0.0312,0.0703 0.0937,0.11328 0.17188,0.11719 0.0742,0 0.14062,-0.0352 0.17968,-0.10157 l 1.54297,-2.65234 3.01953,0.52734 c 0.0742,0.0156 0.14844,-0.0117 0.19532,-0.0742 0.043,-0.0586 0.0547,-0.13672 0.0195,-0.20313 l -2.56641,-5.51953 -1.10156,1.67969 c -0.79297,1.21484 -2.13672,1.87109 -3.52735,1.78906 z m -7.0039,-0.004 c -1.42188,0.10938 -2.80078,-0.54687 -3.60938,-1.78515 l -1.05468,-1.60938 -2.53516,5.44922 c -0.0352,0.0664 -0.0234,0.14453 0.0195,0.20313 0.0469,0.0625 0.12109,0.0898 0.19531,0.0742 l 3.01953,-0.52734 1.54297,2.65234 c 0.0391,0.0664 0.10547,0.10157 0.17969,0.10157 0.0781,-0.004 0.14063,-0.0469 0.17188,-0.11719 z m 0,0"
       fill-opacity="1"
       fill-rule="evenodd"
       id="path252"
       style="display:inline" />
  </g>
</svg>
